# xmcd
#
# Track frame offsets:
#	150
#	23540
#	41822
#	64530
#	83880
#	103905
#	131807
#	155493
#	177482
#	189341
#
# Disc length: 2763 seconds
#
# Revision: 2
# Processed by: cddbd v1.5.2PL0 Copyright (c) Steve Scherf et al.
# Submitted via: EasyCDDAExtractor 6.5.7.1
#
DISCID=820ac90a
DTITLE=cengiz kurtoğlu - sensiz olmuyor
DYEAR=2004
DGENRE=fantezi
TTITLE0=aksam olmadan
TTITLE1=hasretim sana
TTITLE2=söyleyemedim
TTITLE3=sanssizim
TTITLE4=degmez arkadas
TTITLE5=layik bana
TTITLE6=hala yirmisinde
TTITLE7=atese düsmüsüm
TTITLE8=sensiz olmuyor
TTITLE9=siki siki
EXTD=
EXTT0=
EXTT1=
EXTT2=
EXTT3=
EXTT4=
EXTT5=
EXTT6=
EXTT7=
EXTT8=
EXTT9=
PLAYORDER=
